<svg width="80" height="80" viewBox="0 0 80 80" fill="none" xmlns="http://www.w3.org/2000/svg">
<path fill-rule="evenodd" clip-rule="evenodd" d="M9.89308e-07 6.68364C9.89308e-07 4.91103 0.704168 3.21102 1.95759 1.9576C3.21102 0.704175 4.91103 8.91023e-06 6.68364 8.91023e-06H73.3091C74.1875 -0.00142582 75.0577 0.170419 75.8696 0.505706C76.6816 0.840992 77.4194 1.33313 78.0409 1.95396C78.6624 2.57478 79.1553 3.31209 79.4915 4.12368C79.8277 4.93527 80.0005 5.80519 80 6.68364V73.3091C80.001 74.1877 79.8287 75.0579 79.493 75.8699C79.1573 76.6818 78.6648 77.4197 78.0437 78.0411C77.4226 78.6626 76.685 79.1555 75.8732 79.4916C75.0614 79.8277 74.1913 80.0005 73.3127 80H6.68364C5.80562 80 4.93621 79.827 4.12508 79.4909C3.31395 79.1548 2.57699 78.6621 1.95631 78.0411C1.33563 77.4201 0.843389 76.6829 0.507719 75.8716C0.172048 75.0602 -0.000476711 74.1907 9.89308e-07 73.3127V6.68364ZM31.6655 30.5018H42.4982V35.9418C44.0618 32.8145 48.0618 30 54.0727 30C65.5964 30 68.3273 36.2291 68.3273 47.6582V68.8291H56.6654V50.2618C56.6654 43.7527 55.1018 40.08 51.1309 40.08C45.6218 40.08 43.3309 44.04 43.3309 50.2618V68.8291H31.6655V30.5018ZM11.6655 68.3309H23.3309V30H11.6655V68.3273V68.3309ZM25 17.4982C25.022 18.497 24.8443 19.4901 24.4772 20.4193C24.1102 21.3485 23.5613 22.195 22.8627 22.9092C22.164 23.6234 21.3298 24.1908 20.4089 24.5782C19.488 24.9656 18.4991 25.1652 17.5 25.1652C16.5009 25.1652 15.512 24.9656 14.5911 24.5782C13.6702 24.1908 12.836 23.6234 12.1373 22.9092C11.4387 22.195 10.8898 21.3485 10.5228 20.4193C10.1557 19.4901 9.97801 18.497 10 17.4982C10.0432 15.5377 10.8523 13.672 12.2541 12.3007C13.6559 10.9294 15.539 10.1615 17.5 10.1615C19.461 10.1615 21.3441 10.9294 22.7459 12.3007C24.1477 13.672 24.9568 15.5377 25 17.4982Z" fill="#BFA76A"/>
</svg>
